<svg id="visual" viewBox="0 0 960 100" width="960" height="100" xmlns="http://www.w3.org/2000/svg" xmlns:xlink="http://www.w3.org/1999/xlink" version="1.1"><rect x="0" y="0" width="960" height="100" fill="#EEE3CB"></rect><path d="M0 65L8.8 61.3C17.7 57.7 35.3 50.3 53.2 49.3C71 48.3 89 53.7 106.8 59.7C124.7 65.7 142.3 72.3 160 75.8C177.7 79.3 195.3 79.7 213.2 73.5C231 67.3 249 54.7 266.8 50.3C284.7 46 302.3 50 320 56.7C337.7 63.3 355.3 72.7 373.2 72C391 71.3 409 60.7 426.8 57.5C444.7 54.3 462.3 58.7 480 59.8C497.7 61 515.3 59 533.2 61.2C551 63.3 569 69.7 586.8 71.3C604.7 73 622.3 70 640 66.2C657.7 62.3 675.3 57.7 693.2 60.5C711 63.3 729 73.7 746.8 73.7C764.7 73.7 782.3 63.3 800 57.8C817.7 52.3 835.3 51.7 853.2 56.5C871 61.3 889 71.7 906.8 70.7C924.7 69.7 942.3 57.3 951.2 51.2L960 45L960 0L951.2 0C942.3 0 924.7 0 906.8 0C889 0 871 0 853.2 0C835.3 0 817.7 0 800 0C782.3 0 764.7 0 746.8 0C729 0 711 0 693.2 0C675.3 0 657.7 0 640 0C622.3 0 604.7 0 586.8 0C569 0 551 0 533.2 0C515.3 0 497.7 0 480 0C462.3 0 444.7 0 426.8 0C409 0 391 0 373.2 0C355.3 0 337.7 0 320 0C302.3 0 284.7 0 266.8 0C249 0 231 0 213.2 0C195.3 0 177.7 0 160 0C142.3 0 124.7 0 106.8 0C89 0 71 0 53.2 0C35.3 0 17.7 0 8.8 0L0 0Z" fill="#eee3cb"></path><path d="M0 66L8.8 63.7C17.7 61.3 35.3 56.7 53.2 56.7C71 56.7 89 61.3 106.8 62.3C124.7 63.3 142.3 60.7 160 55.3C177.7 50 195.3 42 213.2 37.8C231 33.7 249 33.3 266.8 34.3C284.7 35.3 302.3 37.7 320 43.7C337.7 49.7 355.3 59.3 373.2 59.7C391 60 409 51 426.8 49C444.7 47 462.3 52 480 50.5C497.7 49 515.3 41 533.2 39.7C551 38.3 569 43.7 586.8 46.2C604.7 48.7 622.3 48.3 640 48.2C657.7 48 675.3 48 693.2 45.7C711 43.3 729 38.7 746.8 39.7C764.7 40.7 782.3 47.3 800 51.8C817.7 56.3 835.3 58.7 853.2 55.2C871 51.7 889 42.3 906.8 39.7C924.7 37 942.3 41 951.2 43L960 45L960 0L951.2 0C942.3 0 924.7 0 906.8 0C889 0 871 0 853.2 0C835.3 0 817.7 0 800 0C782.3 0 764.7 0 746.8 0C729 0 711 0 693.2 0C675.3 0 657.7 0 640 0C622.3 0 604.7 0 586.8 0C569 0 551 0 533.2 0C515.3 0 497.7 0 480 0C462.3 0 444.7 0 426.8 0C409 0 391 0 373.2 0C355.3 0 337.7 0 320 0C302.3 0 284.7 0 266.8 0C249 0 231 0 213.2 0C195.3 0 177.7 0 160 0C142.3 0 124.7 0 106.8 0C89 0 71 0 53.2 0C35.3 0 17.7 0 8.8 0L0 0Z" fill="#d3dfca"></path><path d="M0 38L8.8 39.8C17.7 41.7 35.3 45.3 53.2 46.7C71 48 89 47 106.8 43.7C124.7 40.3 142.3 34.7 160 31.2C177.7 27.7 195.3 26.3 213.2 29.8C231 33.3 249 41.7 266.8 41.5C284.7 41.3 302.3 32.7 320 32.5C337.7 32.3 355.3 40.7 373.2 45.8C391 51 409 53 426.8 49.7C444.7 46.3 462.3 37.7 480 33C497.7 28.3 515.3 27.7 533.2 27.8C551 28 569 29 586.8 28.5C604.7 28 622.3 26 640 26C657.7 26 675.3 28 693.2 29.5C711 31 729 32 746.8 33.7C764.7 35.3 782.3 37.7 800 41.2C817.7 44.7 835.3 49.3 853.2 49.2C871 49 889 44 906.8 43.7C924.7 43.3 942.3 47.7 951.2 49.8L960 52L960 0L951.2 0C942.3 0 924.7 0 906.8 0C889 0 871 0 853.2 0C835.3 0 817.7 0 800 0C782.3 0 764.7 0 746.8 0C729 0 711 0 693.2 0C675.3 0 657.7 0 640 0C622.3 0 604.7 0 586.8 0C569 0 551 0 533.2 0C515.3 0 497.7 0 480 0C462.3 0 444.7 0 426.8 0C409 0 391 0 373.2 0C355.3 0 337.7 0 320 0C302.3 0 284.7 0 266.8 0C249 0 231 0 213.2 0C195.3 0 177.7 0 160 0C142.3 0 124.7 0 106.8 0C89 0 71 0 53.2 0C35.3 0 17.7 0 8.8 0L0 0Z" fill="#bfd9d0"></path><path d="M0 16L8.8 19.2C17.7 22.3 35.3 28.7 53.2 30.3C71 32 89 29 106.8 26.8C124.7 24.7 142.3 23.3 160 23.3C177.7 23.3 195.3 24.7 213.2 26C231 27.3 249 28.7 266.8 29C284.7 29.3 302.3 28.7 320 29.2C337.7 29.7 355.3 31.3 373.2 33C391 34.7 409 36.3 426.8 34.2C444.7 32 462.3 26 480 23.3C497.7 20.7 515.3 21.3 533.2 22.8C551 24.3 569 26.7 586.8 26.8C604.7 27 622.3 25 640 24.3C657.7 23.7 675.3 24.3 693.2 25.8C711 27.3 729 29.7 746.8 31.3C764.7 33 782.3 34 800 31.2C817.7 28.3 835.3 21.7 853.2 21C871 20.3 889 25.7 906.8 27.2C924.7 28.7 942.3 26.3 951.2 25.2L960 24L960 0L951.2 0C942.3 0 924.7 0 906.8 0C889 0 871 0 853.2 0C835.3 0 817.7 0 800 0C782.3 0 764.7 0 746.8 0C729 0 711 0 693.2 0C675.3 0 657.7 0 640 0C622.3 0 604.7 0 586.8 0C569 0 551 0 533.2 0C515.3 0 497.7 0 480 0C462.3 0 444.7 0 426.8 0C409 0 391 0 373.2 0C355.3 0 337.7 0 320 0C302.3 0 284.7 0 266.8 0C249 0 231 0 213.2 0C195.3 0 177.7 0 160 0C142.3 0 124.7 0 106.8 0C89 0 71 0 53.2 0C35.3 0 17.7 0 8.8 0L0 0Z" fill="#b6cfd3"></path><path d="M0 20L8.8 18.3C17.7 16.7 35.3 13.3 53.2 11.3C71 9.3 89 8.7 106.8 10.8C124.7 13 142.3 18 160 18.2C177.7 18.3 195.3 13.7 213.2 12.3C231 11 249 13 266.8 13.7C284.7 14.3 302.3 13.7 320 12.3C337.7 11 355.3 9 373.2 9.2C391 9.3 409 11.7 426.8 13.7C444.7 15.7 462.3 17.3 480 17.5C497.7 17.7 515.3 16.3 533.2 14.8C551 13.3 569 11.7 586.8 10.5C604.7 9.3 622.3 8.7 640 11.2C657.7 13.7 675.3 19.3 693.2 19.2C711 19 729 13 746.8 10.8C764.7 8.7 782.3 10.3 800 12.2C817.7 14 835.3 16 853.2 15.8C871 15.7 889 13.3 906.8 12.8C924.7 12.3 942.3 13.7 951.2 14.3L960 15L960 0L951.2 0C942.3 0 924.7 0 906.8 0C889 0 871 0 853.2 0C835.3 0 817.7 0 800 0C782.3 0 764.7 0 746.8 0C729 0 711 0 693.2 0C675.3 0 657.7 0 640 0C622.3 0 604.7 0 586.8 0C569 0 551 0 533.2 0C515.3 0 497.7 0 480 0C462.3 0 444.7 0 426.8 0C409 0 391 0 373.2 0C355.3 0 337.7 0 320 0C302.3 0 284.7 0 266.8 0C249 0 231 0 213.2 0C195.3 0 177.7 0 160 0C142.3 0 124.7 0 106.8 0C89 0 71 0 53.2 0C35.3 0 17.7 0 8.8 0L0 0Z" fill="#b7c4cf"></path></svg>