<svg xmlns="http://www.w3.org/2000/svg" version="1.1" xmlns:xlink="http://www.w3.org/1999/xlink" xmlns:svgjs="http://svgjs.dev/svgjs" viewBox="0 0 1422 800"><defs><linearGradient x1="50%" y1="0%" x2="50%" y2="100%" id="ssscribble-grad"><stop stop-color="hsl(206, 75%, 49%)" stop-opacity="1" offset="0%"></stop><stop stop-color="hsl(331, 90%, 56%)" stop-opacity="1" offset="100%"></stop></linearGradient></defs><g fill="none" stroke-width="1" stroke="url(#ssscribble-grad)" stroke-linecap="round"><path d="M1576.46 395C1564.94 423.16 1540.58 449.83 1510.72 475.01 1484.4 500.2 1467.26 523.93 1462.55 546.28 1471.04 568.76 1487.13 590.06 1504.44 610.38 1518.14 631.24 1521.34 651.63 1511.72 671.95 1490.68 693.58 1460.15 715.91 1424.96 739.46 1390.52 765.09 1360.71 792.51 1338.23 821.88 1324.92 853.23 1319.02 886.06 1318.07 919.69 1320.75 953.28 1322.23 985.67 1319.83 1015.41 1313.14 1041.66 1299.56 1062.88 1279.3 1078.03 1253.64 1087.94 1223.08 1091.87 1189.36 1090.7 1153.75 1087.77 1117.7 1083.71 1082.38 1081.03 1048.17 1083.52 1015.8 1091.54 985.34 1106.13 956.72 1127.93 929.65 1154.46 903.66 1183.01 878.93 1210.92 854.51 1233.78 829.92 1248.26 805.87 1253.63 781.1 1248.36 755.35 1233.84 729.71 1214.93 702.85 1194.29 674.68 1176.49 646.51 1166.97 617.71 1166.21 588.48 1173.78 559.38 1188.89 530.09 1206.32 501.02 1221.83 472.48 1233.15 444.73 1235.78 418.35 1228.53 393.24 1212.76 370.29 1188.98 350.09 1160.1 331.74 1129.92 316.51 1100.82 304.48 1075.32 289.12 1048.96 261.52 1030.19 241.2 1029.4 221.16 1029 196.06 1025.39 165.83 1017.51 131.32 1005.94 94.68 989.16 58.75 967.64 26.43 942.53 0.97 913.92 -15.04 882.92 -21.89 850.38 -19.37 817.02 -10.05 783.62 0 750.44 7.58 718.01 7.97 686.56 -3.04 656 -24.58 626.4 -54.17 597.64 -87.38 569.64 -116.92 542.1 -136.28 514.81 -142.44 487.9 -133.59 460.88 -112.84 433.58 -88.55 406.39 -67.05 378.72 -55.53 350.55 -59.29 322.38 -75.47 294.39 -98.38 266.72 -121.99 239.16 -137 212.12 -138.42 185.9 -126.05 160.08 -100.94 135.44 -68.57 112.33 -36.14 90 -8.96 69.57 8.97 51.32 13.88 26.37 -9.03 -12.89 -10.74 -29.53 -0.97 -41.94 18.79 -55.26 46.86 -70.45 80.46 -89.23 117 -111.13 153.39 -136.47 187.17 -165.5 216.77 -197.05 241.58 -229.91 260.95 -262.74 276.26 -293.37 288.85 -319.62 303.3 -347.28 336.21 -356.24 359.13 -343.63 376.79 -335.4 397.27 -329.96 420.12 -330.08 444.18 -338.72 469.99 -354.8 496.99 -376.99 524.56 -403.37 552.76 -429.08 581.15 -449.77 609.69 -462.91 638.15 -465.02 666.32 -455.49 694.48 -437.7 721.69 -414.21 748.02 -389.72 774.48 -369.62 800.35 -356.07 825.89 -350.56 852.02 -354.17 878.39 -363.58 905.42 -375.59 933.68 -388.25 963.23 -396.44 994.37 -397.6 1026.98 -391.54 1061.17 -376.61 1096.59 -353.98 1132.23 -326.18 1167.59 -294.82 1201.32 -262.56 1232.14 -232.06 1258.76 -204.63 1279.69 -181.28 1299.72 -156.2 1307.22 -128.25 1306.19 -118.39 1311.38 -111.73 1322.97 -102.63 1342.53 -90.57 1370.45 -76.53 1403.98 -59.05 1439.46 -38.43 1472.64 -15.73 1498.37 9.52 1512.72 36.71 1515.43 65.19 1506.58 94.83 1490.05 125.07 1473.57 155.86 1461.91 186.74 1460.42 217.38 1472.7 248.15 1496 278.47 1525.18 308.15 1553.66 337.84 1572.7 366.83 1576.46 395Q1576.46 395 1576.46 395" opacity="0.60"></path><path d="M1542.5 369.17C1531.86 396.17 1509.09 421.96 1480.55 446.58 1454.28 471.26 1435.49 494.89 1427.68 517.61 1432.4 540.62 1445.49 563.02 1461.79 585.08 1477.15 607.87 1484.76 630.84 1481.47 654.33 1467.44 679.13 1442.92 705 1411.39 732.18 1377.39 760.93 1344.64 791.07 1316.55 822.42 1295.77 854.53 1282.28 886.88 1275.05 918.59 1273.63 948.84 1274.19 976.53 1274.09 1000.44 1269.73 1027.72 1228.19 1049.35 1191.02 1046.86 1161.37 1044.27 1129.21 1042.33 1095.83 1043.17 1061.75 1049.76 1028.03 1061.93 995.25 1079.96 963.26 1103.85 932.58 1130.92 903.15 1158.46 874.66 1184.1 847.07 1204.03 820.09 1215.58 793.64 1218.58 767.33 1211.95 740.95 1197.16 714.71 1178.81 688.12 1159.16 661.13 1142.23 634.13 1132.9 607.38 1131.56 581.04 1137.9 554.85 1151.52 529.34 1167.82 504.89 1183.11 480.96 1195.43 458.55 1200.41 438.07 1196.56 418.52 1184.77 401.26 1164.83 386.48 1138.94 372.48 1110.33 360.58 1081.08 350.34 1053.7 339.4 1030.71 328.53 1012.56 316.58 999.42 301.26 991.89 282.85 987.8 260.42 985.55 233.27 985.06 202.2 983.26 168.18 978.84 132.9 972.24 98.65 961.39 68.2 946.22 43.55 927.72 26.99 905.29 19.66 879.7 19.65 851.84 26.24 822.06 36.17 791.18 43.62 759.56 46.15 727.79 40.38 696.33 23.89 665.06 -1.28 634.44 -31.88 604.55 -63.41 575.1 -89.39 546.29 -104.53 518.05 -107.14 490.1 -96.28 462.5 -75.35 435.17 -52.15 407.93 -32.12 380.8 -21.48 353.81 -24.92 326.82 -39.83 300.6 -61.34 275.27 -84.37 250.02 -100.43 225.81 -104.67 202.86 -96.35 180.19 -75.35 158.99 -45.87 139.47 -14.03 120.39 15.26 103.07 37.66 87.55 51.44 65.32 36.18 25.63 28.48 5.26 30.65 -10.74 41.63 -28.49 61.19 -48.61 87.58 -72.06 119.46 -98.27 154.19 -127.05 189.38 -158.02 223.05 -189.91 253.72 -221.29 280.35 -250.92 302.96 -276.87 322.07 -297.45 344.08 -316.42 380.46 -314.58 399.98 -302.14 413.75 -296.03 429.71 -293.66 447.84 -297.1 466.68 -308.49 487.56 -326.36 510.17 -349.1 533.24 -374.8 557.66 -399.05 583.12 -418 608.72 -429.69 635.09 -431.08 662.08 -421.75 689.07 -404.82 716.05 -382.43 743.03 -358.74 770.15 -338.62 797.53 -324.04 825.37 -316.63 853.67 -317.75 882.79 -324.79 912.92 -335.21 943.76 -347.51 975.75 -357.01 1008.75 -361.11 1042.01 -359.36 1075.63 -349.53 1108.83 -332.05 1140.58 -308.8 1170.23 -280.71 1196.51 -250.02 1219.01 -219.17 1236.57 -189.6 1248.56 -162.71 1258.21 -130.4 1261.66 -89.3 1268.04 -76.24 1280.36 -69.33 1299.43 -61.5 1325.37 -52.01 1357.11 -41.75 1391.39 -28.87 1424.31 -13.3 1452.26 3.83 1471.21 23.58 1478.74 45.56 1476.13 68.84 1464.4 93.82 1447.8 120 1433.55 146.91 1425.44 174.52 1427.53 202.41 1442.19 230.6 1466.2 258.77 1494.56 286.67 1521.41 314.63 1539.06 342.18 1542.5 369.17Q1542.5 369.17 1542.5 369.17" opacity="0.10"></path><path d="M1508.46 353.12C1498.43 378.94 1477.08 404.09 1449.91 428.59 1424.04 453.18 1404.15 477.27 1393.81 501.02 1395.08 525.1 1404.98 549.14 1419.48 573.37 1435.25 598.29 1445.86 623.8 1447.76 650.09 1440.31 677.36 1422.34 705.64 1396 734.92 1364.84 764.96 1331.92 795.65 1300.74 826.53 1274.33 857 1253.87 886.5 1239.58 914.1 1230.02 950.24 1225.28 996.89 1218.77 1005.66 1210.36 1007.35 1197.09 1006.21 1179.2 1003.66 1157.71 1002.86 1132.52 1004.08 1104.66 1008.93 1074.84 1019.61 1043.82 1035.47 1012.42 1056.21 980.66 1081.33 949.36 1108.17 918.84 1134.1 888.62 1157.15 859.31 1174.07 830.9 1182.79 802.79 1183.64 775.37 1175.85 748.57 1160.94 721.88 1143.22 695.61 1124.57 669.79 1108.49 643.97 1099.38 619.21 1097.5 595.62 1102.68 572.13 1114.8 549.99 1129.86 529.41 1144.69 509.13 1157.64 490.61 1164.54 473.97 1163.75 457.65 1155.77 443.1 1139.81 430.12 1117.42 416.77 1091.27 404.16 1062.99 391.59 1034.96 377.05 1009.64 361.08 987.9 342.78 970.43 320.88 958.21 295.72 949.89 267.19 944.43 235.7 941.94 202.35 939.79 168.68 936.7 136.53 933 107.96 926.39 85.2 916.39 69 903.87 60.72 887.63 60.24 868.03 64.54 846.02 72.43 821.4 80.57 794.86 83.87 766.95 80.8 738.02 69.33 708.62 48.5 678.8 21.08 649.05 -9.24 619.66 -38.31 590.31 -60.54 561.47 -71.79 533.24 -71.41 505.13 -59.12 477.58 -38.35 450.62 -16.29 423.7 2.43 397.3 12.46 371.48 9.6 345.66 -3.86 321.04 -23.83 297.66 -46.11 274.33 -63.04 252.33 -69.95 231.75 -65.67 211.28 -49.13 192.29 -23.28 174.8 6.84 157.34 37.04 141.24 62.87 126.32 85.23 103.62 82.65 57.66 72.93 31.61 69.66 11.42 72.99 -10.75 83.88 -35.18 101.5 -62.12 125.94 -90.96 155.38 -121.11 187.85 -151.85 221.58 -181.93 254.77 -209.93 286.15 -234.96 314.81 -255.38 340.43 -270.06 362.64 -279.47 382.14 -282.75 399.65 -280.47 421.99 -271.84 464.81 -257.96 488.35 -264.97 504.51 -278.74 522.4 -297.97 542.03 -320.89 561.83 -345.68 583.29 -368.34 606.29 -385.58 629.37 -395.87 653.85 -396.6 679.67 -387.49 705.49 -371.42 732.03 -350.15 759.25 -327.32 786.54 -307.31 814.63 -291.91 843.52 -282.8 872.59 -281.55 902.53 -286.14 933.21 -294.62 963.89 -305.98 995 -316 1026.06 -322.21 1056.27 -324.02 1085.45 -318.83 1112.72 -306.49 1137.61 -288.31 1159.27 -264.51 1176.86 -236.82 1191.03 -207.39 1200.8 -177.5 1206.36 -148.7 1210.12 -122.5 1211.83 -99.24 1213.21 -79.13 1217.61 -62.83 1225.39 -49.19 1238.26 -37.47 1257.86 -28.13 1283.28 -19.2 1313.43 -9.88 1346.37 -0.96 1378.73 9.5 1406.9 21.85 1428.31 34.97 1440.12 50.32 1441.31 67.79 1434.4 86.24 1421.01 106.59 1405.45 128.51 1394.17 151.13 1389.96 174.91 1395.64 199.53 1412.52 224.48 1437.05 249.93 1464.43 275.64 1489.51 301.43 1505.6 327.3 1508.46 353.12Q1508.46 353.12 1508.46 353.12" opacity="0.60"></path><path d="M1474.46 351C1465.13 375.65 1445.26 400.22 1419.55 424.7 1394.23 449.26 1373.49 473.88 1360.83 498.63 1358.72 523.67 1365.15 549.08 1377.17 574.98 1392.28 601.36 1404.69 628.42 1410.74 656.18 1409.28 684.42 1398.07 713.27 1378.02 742.49 1351.65 771.64 1321.06 800.56 1289.42 828.64 1259.73 855.42 1233.82 880.27 1212.9 902.39 1185.43 944.72 1166.24 963.13 1152.04 961.82 1138.63 963.9 1121.39 968.89 1100.87 977.87 1077.96 992.29 1052.72 1011.16 1025.92 1033.75 997.93 1059.26 969.3 1085.12 940.61 1108.94 911.58 1129.17 882.94 1143.07 854.95 1149.11 826.97 1148.04 799.72 1139.3 773.32 1124.42 746.95 1107.39 721.4 1089.73 696.75 1074.5 672.11 1065.63 648.95 1063.26 627.32 1067.34 605.71 1077.98 585.65 1091.73 567.16 1105.87 540.16 1123.29 492.37 1118.89 470.08 1094.32 454.16 1071.33 437.76 1045.04 420.2 1017.56 400.25 991.19 378.2 966.98 353.64 945.98 326.33 929.42 296.68 916.63 265.26 907.12 233.14 901.25 201.47 896.95 171.96 893.1 135.6 887.83 102.04 865.3 105.31 845.65 111.28 829.5 117.99 810.54 122.38 789.26 120.44 766.39 111.57 741.84 94.96 716.15 70.84 689.63 42.39 662.54 13.37 635.28 -12.55 607.72 -30.75 580.3 -38.14 553.27 -35 526.17 -21.51 499.56 -1.07 473.56 19.76 447.56 37.13 422.18 46.46 397.54 44.02 372.89 31.84 349.56 13.38 327.55 -7.94 305.55 -25.32 284.86 -34.35 265.47 -33.66 246.03 -21.44 227.78 0.37 210.63 27.85 193.17 57.55 176.49 85.32 160.31 107.3 143.29 122.16 126.19 129.65 108.59 129.63 89.41 125.38 69.07 119.73 47.24 113.97 23.36 112.11 -2.21 115.86 -29.41 125.04 -58 141 -87.35 162.89 -116.63 189.26 -145.09 219.1 -171.55 250.71 -194.78 282.84 -214.37 314.22 -229.03 343.98 -238.12 371.63 -242.79 396.93 -242.47 420.05 -238.08 440.78 -232.58 459.97 -226.37 478.19 -221.45 494.94 -220.94 511.63 -224.99 528.74 -234.44 545.27 -250.2 562.79 -270.35 581.55 -293.09 600.18 -316.74 620.26 -337.74 641.83 -353.27 663.4 -362.22 686.51 -362.36 711.15 -353.48 735.8 -338.25 761.4 -318.1 787.84 -296.19 814.27 -276.44 841.5 -260.44 869.35 -249.86 897.07 -246.38 925.2 -248.52 953.38 -254.84 980.99 -264.75 1008.08 -274.56 1034.04 -282.02 1058.53 -286.54 1080.99 -285.32 1100.72 -277.77 1118.07 -264.76 1132.05 -245.87 1142.39 -222.29 1150.62 -195.81 1155.92 -167.37 1159.05 -138.5 1162.7 -110.67 1166.7 -84.53 1172.64 -60.7 1183.05 -39.96 1197.85 -21.82 1217.77 -5.94 1243.13 7.19 1272.42 19.03 1303.85 30.23 1335.16 40.13 1363.3 50.5 1385.3 61.82 1402.4 79.46 1384.57 123.64 1364.17 150.33 1356.25 169.15 1355.81 189.39 1364.63 210.84 1383.17 232.56 1407.8 255.25 1434.01 278.69 1457.34 302.22 1472.02 326.36 1474.46 351Q1474.46 351 1474.46 351" opacity="0.69"></path><path d="M1440.49 363.47C1431.95 386.94 1413.6 410.82 1389.43 435.04 1364.85 459.31 1343.53 484.02 1328.84 509.17 1323.48 534.47 1326.28 560.31 1335.27 586.67 1348.74 613.21 1361.68 640.26 1370.61 667.64 1374.15 694.96 1369.33 722.31 1356.04 749.31 1335.84 775.56 1309.75 800.76 1280.29 824.32 1250.12 846.11 1221.24 865.4 1195.39 881.64 1149.55 909.31 1120.38 920.21 1111.71 922.63 1104.04 928.27 1093.39 937.21 1079.77 950.06 1064.2 967.62 1045.9 988.65 1025.39 1012.17 1003.41 1037.25 979.92 1061.49 955.47 1082.8 930.28 1100.06 904.71 1111 879.17 1114.57 853.37 1111.8 827.89 1102.31 802.99 1087.59 778.03 1071.3 753.74 1054.65 730.27 1040.26 706.8 1031.64 684.69 1028.84 663.93 1031.89 643.12 1041.09 623.55 1053.46 605.08 1066.73 586.36 1079.89 568.44 1089.34 551.05 1093.38 532.91 1092.09 514.72 1083.88 496.02 1069.27 475.85 1049.92 454.48 1026.45 431.51 1000.62 406.59 974.5 379.83 949.12 351.32 925.72 321.58 905.62 291.1 888.74 260.83 875.02 231.91 865.02 205.45 857.31 182.9 851.07 152 835.78 159.25 795.01 160.19 771.9 152.54 754.3 138.23 734.73 117.49 713.57 91.35 691.44 63.13 668.21 36.41 644.29 14.18 619.86 0.17 595.1 -3.52 570.31 2.1 545.33 16.52 520.52 36.45 496.08 55.98 471.59 71.95 447.55 80.49 424.08 78.32 400.61 67.29 378.26 50.3 357.03 30.05 335.75 12.61 315.51 1.97 296.22 -0.41 276.75 7.72 258.02 25.36 239.87 49.47 221.21 77.49 202.75 105.72 184.2 130.49 164.68 149.94 144.59 162.97 123.65 168.69 101.29 169.1 77.74 166.19 52.9 160.82 26.73 156.69 -0.48 155.79 -28.38 158.28 -56.5 166.42 -84.19 180.22 -110.58 198.71 -135.1 221.88 -156.69 248.48 -174.4 277.37 -188.4 307.51 -197.65 337.79 -202 367.65 -203.03 396.32 -200.4 423.47 -195.21 449.02 -190.32 472.95 -185.98 495.52 -183.84 516.64 -186.43 536.93 -193.5 556.82 -205.46 575.86 -222.75 595.07 -243.4 614.75 -265.62 634.11 -287.94 654.3 -307.22 675.5 -321.07 696.62 -328.76 718.9 -328.34 742.37 -319.72 765.84 -305.33 789.95 -286.3 814.55 -265.36 839.07 -246.01 863.93 -229.61 888.84 -217.78 913.42 -212.29 937.7 -212.03 961.24 -216.04 983.94 -224.1 1005.34 -233.06 1024.9 -240.93 1050.87 -248.2 1087.49 -230.78 1098.18 -205.09 1104.08 -182.72 1108.87 -157.28 1113.57 -130.09 1120.55 -102.52 1129.61 -75.31 1141.88 -49.29 1158.85 -25.28 1180.01 -3.32 1205.23 16.56 1233.85 33.91 1264.12 49.55 1293.93 63.94 1332.44 82.66 1366.57 118.76 1358.85 138.27 1341.45 158.89 1321.36 207.3 1334.34 235.08 1354.04 254.2 1378.39 274.54 1403.27 295.99 1424.91 317.48 1438.32 340 1440.49 363.47Q1440.49 363.47 1440.49 363.47" opacity="0.90"></path><path d="M1406.5 387.16C1398.61 409.46 1381.69 432.4 1359.07 455.88 1335.44 479.37 1313.95 503.44 1297.75 527.98 1289.58 552.53 1288.95 577.54 1294.65 602.85 1305.72 628.04 1317.98 653.35 1328.34 678.52 1335.44 703.19 1335.95 727.29 1329.02 750.38 1315.46 772.35 1295.26 792.7 1270.15 810.94 1242.29 827.39 1213.36 841.22 1185.25 852.15 1159.59 861.16 1137.15 867.4 1118.33 871.07 1085.99 877.44 1055.96 903.39 1043.17 925.84 1033.02 945.7 1020.53 967.97 1005.83 991.51 989.97 1015.39 972.21 1037.47 952.91 1055.98 932.83 1070.22 911.68 1078.34 889.84 1079.66 867.64 1075.45 845.11 1065.42 822.53 1050.99 799.85 1035.49 777.29 1019.84 754.99 1006.27 732.69 997.92 711.18 994.75 690.43 996.83 669.58 1004.63 649.31 1015.59 629.46 1027.82 609.24 1040.61 589.08 1050.69 568.71 1056.45 547.55 1057.88 525.71 1053.17 502.93 1042.45 478.98 1027.02 453.79 1006.99 427.33 983.74 399.9 959.08 371.56 933.86 342.8 909.37 314.41 886.93 286.93 866.8 261.4 849.32 210.29 816.34 192.11 785.21 198.8 774.16 199.99 760.76 170.66 722.84 137.87 698.57 111.17 680.97 84.39 661.96 60.73 641.85 42.45 621.2 32.44 599.78 31.99 577.87 39.59 555.72 54.52 533.3 73.74 510.83 91.95 488.29 106.61 465.82 114.5 443.52 112.69 421.22 102.87 399.63 87.4 378.73 68.38 357.77 51.12 337.39 39.21 317.49 34.08 297.35 38.34 277.46 51.64 257.65 71.79 237.3 97.1 216.71 124.47 195.67 150.55 173.78 173.34 151.14 191.2 127.64 202.65 103.2 208.61 77.87 210.19 51.8 207.68 25.26 204.14 -1.48 201.46 -27.91 199.88 -53.56 202.09 -77.78 208.76 -99.76 219.29 -119.31 234.61 -135.46 254.08 -147.64 276.73 -156.48 302.13 -161.19 329.25 -161.97 357.47 -160.69 385.99 -157.08 414.15 -152.3 441.87 -148.95 468.61 -147.09 494.25 -148 518.97 -153.62 542.66 -163.43 565.52 -177.44 587.65 -195.78 609.3 -216.51 630.73 -237.91 651.79 -258.75 672.96 -276.26 694.41 -288.48 715.76 -294.97 737.57 -294.06 759.87 -285.71 782.16 -272.15 804.42 -254.23 826.51 -234.32 848.5 -215.48 870.12 -198.89 891.11 -186.08 911.74 -178.79 931.39 -176.26 949.73 -177.91 975.28 -187.62 1015.63 -208.18 1029.99 -210.2 1038.45 -206.42 1045.47 -197.49 1051.62 -183.69 1058.87 -166.11 1066.66 -144.8 1075.92 -120.79 1088.35 -95.28 1103.65 -68.88 1122.35 -42.5 1144.9 -16.94 1170.53 7.43 1198.43 30.33 1227.45 51.3 1255.82 70.65 1281.54 88.58 1311.01 112.3 1326.99 154.85 1314.94 175.61 1298.52 196.24 1288.03 241.94 1304.97 267.6 1325.48 285.11 1349.3 303.84 1372.73 323.78 1392.61 343.73 1404.69 364.87 1406.5 387.16Q1406.5 387.16 1406.5 387.16" opacity="0.13"></path><path d="M1372.49 414.68C1365.25 435.8 1349.71 457.51 1328.67 479.7 1306.16 501.87 1284.81 524.48 1267.5 547.37 1256.94 570.15 1253.08 593.1 1255.37 615.98 1263.48 638.54 1274.06 660.77 1284.52 682.35 1293.7 703.22 1298.23 723.03 1296.79 741.41 1289.67 758.6 1275.97 773.93 1256.65 787.07 1233.32 798.76 1207.06 808.12 1179.57 815.11 1152.42 821.01 1126.7 825.03 1103.29 827.55 1074.27 831.57 1034.44 844.37 1020.79 857.26 1013.6 870.21 1006.25 886.03 998.15 904.57 990.21 925.78 980.82 948.32 969.79 971.01 958.26 993.04 944.98 1012.55 930.07 1028.09 914.63 1039.34 897.77 1044.82 879.71 1044.15 861.35 1038.75 842.06 1028.38 822.04 1014.36 801.94 999.69 781.27 985.03 760.14 972.28 739.02 964.22 717.94 960.72 696.89 961.92 675.76 968.38 654.51 977.9 633.03 988.97 611.25 1001.13 588.98 1011.44 566.09 1018.43 542.68 1022.08 518.44 1020.46 493.35 1013.41 467.78 1001.92 441.47 985.7 414.72 965.74 388.13 943.55 361.82 919.75 336.44 895.52 312.63 872.12 290.99 850 272.36 829.7 250.96 804.25 233.2 767.47 235.08 754.17 238.99 743.49 235.63 720.71 220.52 706.64 203.12 696.44 181.38 684.67 156.71 671.35 130.76 657.49 106.43 642.17 86.4 625.57 72.19 608.55 65.96 590.45 68.37 571.49 77.52 552.3 92.66 532.45 110.99 512.08 127.85 491.65 141.25 470.83 148.49 449.71 147.04 428.58 138.36 407.65 124.39 386.93 106.72 366.15 89.93 345.47 77.19 324.81 69.81 303.94 70.56 282.9 79.65 261.59 95.53 239.87 117.33 217.67 142.6 194.92 168.47 171.63 193.03 147.71 214.38 123.21 230.8 98.36 242.3 73.16 249.19 47.93 251.29 23.01 250.77 -1.27 249.16 -24.38 246.17 -55.81 255.91 -102.1 272.07 -114.78 287.22 -119.43 305.79 -120.83 327.07 -119.42 350.37 -117.19 375.24 -113.86 400.97 -110.51 427.36 -109.4 453.76 -110.39 479.78 -114.38 505.64 -122.82 530.82 -134.95 555.23 -150.51 579.27 -169.42 602.62 -189.83 625.34 -210.14 647.81 -229.36 669.85 -245.1 691.52 -255.74 713.11 -261.11 734.48 -259.76 755.6 -251.7 776.73 -238.95 797.11 -222.16 816.66 -203.31 836.14 -185.11 854.65 -168.52 872.02 -154.96 897.03 -143.83 939.3 -147.35 956.22 -156.78 971.45 -166.65 997.76 -169.05 1011.42 -157.68 1022.7 -145.09 1035.57 -128.54 1050.65 -108.74 1068.79 -86.73 1089.63 -62.84 1113.11 -37.93 1138.93 -12.76 1166.16 12.22 1193.66 36.54 1220.22 59.78 1244.26 81.86 1264.16 102.73 1279.25 122.14 1288.23 140.49 1290.66 157.98 1288.14 174.29 1280.8 190.18 1270.42 205.92 1256.61 228.59 1256.12 275.54 1276.32 300.69 1297.21 317.64 1320.22 335.58 1342.08 354.56 1360.22 373.51 1371.04 393.55 1372.49 414.68Q1372.49 414.68 1372.49 414.68" opacity="0.29"></path><path d="M1338.46 437.88C1331.76 457.83 1317.51 478.08 1298.04 498.53 1276.78 518.93 1255.89 539.45 1237.94 559.91 1225.49 580.2 1218.8 600.26 1217.81 619.85 1222.68 639.04 1230.84 657.5 1240.23 674.94 1253.53 699.37 1254.38 739.27 1237.65 753.94 1220.19 762.2 1198.66 768.68 1174.38 773.53 1148.7 778.17 1122.62 781.83 1097.23 785 1073.38 789.25 1051.5 794.06 1031.84 800.03 1014.76 808.5 999.78 819.02 986.5 831.9 975.26 847.76 964.9 865.88 954.87 885.83 945.85 907.4 936.38 929.28 926.13 950.36 910.48 978.36 872.7 1009.13 850.37 1008.29 834.9 1001.94 818.21 991.42 800.37 977.91 782.49 964.1 763.55 950.43 743.6 938.49 723.64 930.73 703.16 926.98 682.18 927.36 661.15 932.54 639.55 940.65 617.39 950.45 595.09 961.75 572.14 971.93 548.58 979.68 524.91 985.02 500.7 985.99 476.16 982.24 451.84 974.53 427.58 962.23 403.85 945.98 381.12 927.04 359.67 905.71 340.16 883.01 322.7 860.07 307.98 837.36 296.51 815.55 284.87 786.16 279.64 739.17 282.35 721.01 282.73 706.39 265.37 680.08 243.24 666.43 222.75 657.3 199.49 647.09 175.08 635.72 151.06 624.2 129.91 611.4 113.78 597.37 103.51 583.13 100.67 567.72 105.42 551.24 115.67 534.62 130.7 517.05 148.01 498.63 163.53 480.17 175.76 460.93 182.46 440.98 181.4 421.03 173.88 400.84 161.46 380.44 145.23 360 129.15 339.27 115.96 318.26 106.8 297.11 104.46 275.57 109.54 253.61 121.02 231.44 138.72 208.8 160.86 185.76 185.08 162.55 209.79 139.04 233.09 115.42 253.16 91.99 269.46 68.82 281.67 46.29 289.2 24.65 293.34 4.28 295.1 -14.31 294.91 -54.12 317.61 -77.97 337.83 -75.56 354.43 -73.63 373.36 -71.63 394.04 -70.48 416.03 -72.03 439.01 -75.98 462.47 -82.9 486.44 -93.77 510.39 -107.73 534.05 -124.32 557.77 -143.33 581 -163.04 603.62 -182.04 626.19 -199.54 648.15 -213.52 669.44 -222.65 690.71 -226.98 711.35 -225.25 731.3 -217.49 751.25 -205.55 770.04 -189.86 787.64 -172.11 805.21 -154.65 821.54 -138.26 836.6 -124.21 858.47 -110.9 896.1 -107.9 912.44 -114.77 928.92 -124.05 963.58 -132.18 984.16 -126.66 1000.46 -118.76 1018.62 -107.07 1038.86 -91.98 1061.3 -74.39 1085.52 -54.3 1111.03 -32.4 1137.13 -9.42 1162.9 14.3 1187.13 38.21 1208.93 61.9 1227 85.11 1240.25 107.61 1248.81 129.22 1251.85 149.96 1249.57 169.87 1244.07 188.81 1235.62 207.13 1226.03 224.97 1218.51 242.11 1213.79 259.08 1213.57 276.09 1219.76 292.69 1231.62 309.59 1248.48 326.93 1269.37 344.1 1291.31 361.87 1311.49 380.33 1327.86 398.75 1337.4 417.93 1338.46 437.88Q1338.46 437.88 1338.46 437.88" opacity="0.39"></path><path d="M1304.46 449.41C1298.35 468.19 1285.41 486.85 1267.55 505.33 1247.66 523.76 1227.46 541.9 1209.21 559.61 1190.68 585.62 1186.01 633.43 1195.98 654.44 1214.5 688.31 1193.15 723.38 1166.19 730.67 1144.47 735.75 1120.86 740.68 1096.39 745.87 1071.88 752.64 1048 760.49 1025.3 769.83 1004.14 781.58 984.65 795.25 966.79 810.89 950.77 828.78 936.08 848.15 922.36 868.47 909.98 889.42 897.99 909.82 886.03 928.69 868.9 952.44 831.89 975.02 811.16 971.69 797.03 964.65 781.76 954.15 765.33 941.25 748.9 928.33 731.29 915.65 712.52 904.5 693.74 897.07 674.23 893.1 654.09 892.76 633.94 896.74 613.17 903.45 591.89 911.93 570.65 922.18 548.98 931.9 527.08 939.97 505.43 946.46 483.81 949.47 462.53 948.54 441.95 944.26 422.2 935.75 403.75 923.38 386.64 908.14 371.4 890.06 358.48 869.93 347.4 848.74 338.94 826.86 333.23 804.99 329.07 783.82 327.16 763.56 327.06 744.47 327 718.98 320.97 676.84 309.83 659.16 297.2 648.75 281.05 638.51 261.69 628.15 239.59 618.38 216.33 608.1 193.48 597.11 163.64 580.46 136.51 542.34 143.32 520.67 154.32 505.84 168.99 489.98 185.17 473.13 199.31 456.26 210.35 438.42 216.46 419.64 215.68 400.87 209.19 381.59 198.21 361.89 183.48 342.17 168.35 321.99 155.14 301.4 144.77 280.78 139.96 259.75 141.52 238.38 148.81 217 162.22 195.36 180.55 173.62 201.94 152.06 225.24 130.61 248.74 109.55 270.72 89.07 290.36 69.38 306.93 50.85 331.82 6.38 342.26 -31.96 345.69 -34.56 352.52 -34.37 380.7 -31.72 401.68 -33.3 417.77 -37.67 435.45 -44.46 454.3 -53.94 474.01 -66.77 494.4 -82.01 515.11 -99.09 536.2 -117.76 557.29 -136.45 578.14 -153.94 599.12 -169.68 619.7 -181.91 639.74 -189.61 659.8 -192.98 679.28 -190.93 698.05 -183.49 716.83 -172.35 734.47 -157.76 750.98 -141.13 767.52 -124.51 782.98 -108.49 797.42 -94.2 818.83 -79.14 858.49 -69.92 877.81 -73.8 898.52 -81.46 945.1 -92.36 972.49 -91.29 992.84 -87.37 1014.65 -80.14 1037.76 -69.71 1061.81 -56.88 1086.38 -41.29 1110.75 -23.45 1134.21 -4.04 1155.92 16.81 1174.85 38.6 1190.62 60.88 1202.23 83.41 1209.12 105.82 1212.11 127.98 1210.66 149.7 1205.43 170.86 1198.68 191.45 1190.69 211.46 1183.06 230.93 1178.49 249.86 1177.31 268.41 1180.61 286.69 1189.64 304.61 1203.42 322.46 1221.03 340.33 1241.48 358.03 1262.14 375.93 1280.59 394.08 1295.29 412.18 1303.68 430.62 1304.46 449.4Q1304.46 449.41 1304.46 449.41" opacity="0.85"></path><path d="M1270.46 445.96C1264.92 463.56 1253.26 480.67 1237 497.22 1218.58 513.72 1199.32 529.61 1181.15 544.76 1160.6 566.88 1147.2 606.15 1152.84 622.9 1168.71 643.7 1180.2 659.97 1179.25 672.23 1165.27 685.64 1135.57 698.26 1095.4 712.68 1050.25 733.88 1004.57 760.77 962.06 793.74 924.08 832.39 890.49 871.67 859.86 905.7 838.84 925 797.41 939.95 775.98 934.58 761.69 927.09 746.67 916.78 730.84 904.56 715.04 892.57 698.35 880.85 680.75 870.49 663.14 863.4 645.04 859.28 626.55 858.3 608.09 861.16 589.33 866.53 570.42 873.66 551.68 882.71 532.99 891.7 514.59 899.68 496.63 906.81 479.27 911.29 462.83 912.6 432.45 906.95 408.05 886.71 391.77 855.02 380.02 817.08 375.15 775.66 374.15 734.93 368.17 697.83 356.13 664.66 333.45 635.14 297.74 610.09 254.67 586.35 213 562.27 188.73 544.9 172.32 507.44 181.87 486.88 193.25 472.95 207.33 458.11 222.27 442.36 235.04 426.62 244.92 409.95 250.46 392.34 249.93 374.74 244.4 356.62 234.82 338.07 221.61 319.53 207.61 300.58 194.73 281.32 183.66 262.11 176.96 242.65 175.53 223.08 178.99 203.69 188.14 184.34 202.28 165.24 240.26 128.31 284.63 94.06 325.47 64.85 365.15 31.42 391.8 8.11 403.73 9.22 416.26 4.25 436.53 -7.07 463.21 -27.22 477.77 -41.44 493.49 -57.38 510.05 -74.44 527.11 -92.35 544.71 -109.75 562.59 -125.59 580.68 -139.52 598.86 -150.07 616.92 -156.42 635.04 -158.92 652.96 -156.59 670.56 -149.49 688.16 -139.14 705.04 -125.64 721.21 -110.16 737.43 -94.46 753.05 -78.97 768.16 -64.68 790.98 -48.32 836.52 -33.46 860.24 -34.12 894.57 -42.34 932.29 -50.05 974.03 -52.04 1018.7 -48.36 1064.56 -33.5 1107.04 -8.55 1142.12 23.16 1164.72 61.09 1171.28 101.94 1167.09 143.95 1154.3 185.66 1142.13 225.87 1140.89 245.6 1143.2 264.93 1149.67 283.88 1161.04 302.59 1176.15 321.02 1194.01 339.2 1213.68 357.24 1232.86 375.15 1249.56 392.93 1262.62 410.67 1269.94 428.36 1270.46 445.96Q1270.46 445.96 1270.46 445.96" opacity="0.75"></path><path d="M1236.46 428.61C1221.72 461.47 1189.95 491.27 1153.63 517.71 1126.12 543.91 1112.12 566.42 1111.66 585.08 1123.18 603.75 1135.16 619.38 1140.01 633.03 1136.24 649.27 1118.44 666.56 1089 686.85 1051.99 713.26 1010.23 744.4 967.88 779.41 926.61 817.02 888.09 852.59 852.56 881.05 819.56 900.42 788.07 906.01 756.98 897.05 726.7 880.32 695.3 857.81 662.44 836.49 629.58 826.35 596.81 826.69 565.12 835.73 534.23 852.49 505.95 867.28 482.01 874.67 460.59 874.34 444.98 861.27 435.61 837.02 427.31 805.59 421.9 768.42 415.84 729.33 402.21 691.14 381.04 654.97 350.59 621.61 311.54 591.72 270.08 563.8 234.48 536.78 210.85 511.64 206.15 485.56 220.97 457.72 244.61 430.29 269.72 400.22 284.46 367.36 278.6 334.5 258.61 300.4 234.63 265.86 214.39 231.73 210.93 198.03 226.7 166.22 256.9 136.3 297.07 110.1 338.68 89.34 374.66 72.05 402.46 61.05 422.14 56.17 437.14 51.29 465.19 29.45 490.83 -2.49 511.77 -33.97 537.47 -67.47 566.54 -96.91 596.39 -118.63 628.19 -125.63 661.05 -115.49 693.91 -94.17 726.27 -65 758.4 -35.6 791.31 -13.95 825.38 -0.83 861.39 3.87 899.42 -0.49 940.1 -6.59 982.41 -9.98 1024.11 -10.78 1063.19 -2.95 1095.3 13.69 1118.7 36.47 1129.86 66.36 1128.09 100.76 1120.7 137.76 1110.01 176.24 1103.89 214.52 1112.2 252.8 1134.37 290.07 1167.3 325.85 1203.95 361.38 1230.6 395.75 1236.46 428.61Q1236.46 428.61 1236.46 428.61" opacity="0.32"></path><path d="M1202.46 402.59C1189.37 433.1 1160.76 460.36 1126.56 484.31 1097.98 508.31 1079.62 529.2 1073.13 547.3 1078.97 566.23 1088.68 583.67 1095.86 600.78 1099.06 621.02 1091.49 643.26 1073.21 668.63 1047.09 698.68 1013.67 731.86 976.57 766.55 937.61 801.23 898.88 831.88 861.87 854.41 825.91 868.21 791.8 869.76 759.33 859.12 727.44 842.79 696.25 822.03 665.74 802.49 635.22 792.62 606.83 791.57 581.18 798.17 556.1 812.39 534.7 826.2 517.78 835.05 501.92 838.75 490.39 831.92 482.32 814.95 472.4 790.87 462 759.79 448.13 724.84 426.42 688.59 397.81 652.29 362.84 617.42 323.89 584.55 286.81 553.45 258.6 523.8 242.72 495.77 243.72 467.92 260.52 439.67 282.94 411.87 305.37 382.77 318.46 352.26 313.7 321.74 296.52 291.26 274.73 261.51 253.99 232.22 246.02 204.56 254.31 179.71 276.1 156.49 309.76 137.33 348.68 123.17 386.69 111.01 420.32 103.5 447.66 99.77 467.22 94.72 482.08 89.62 494.9 81.93 504.62 67.13 516.42 46.6 531.7 20.53 547.35 -10.67 567.32 -41.85 591.24 -67.84 615.58 -86.23 643.24 -91.36 673.75 -81.49 704.27 -61.95 736.19 -35.02 769.39 -6.9 803.02 15.5 838.56 31.32 875.79 39.89 913.39 39.73 951.84 36.45 989.15 33.54 1023.36 30.62 1052.31 33.61 1072.74 43.56 1085.4 58.18 1087.94 79.74 1081.71 106.53 1074.56 136.45 1068.27 169.27 1068.85 203.21 1082.92 237.99 1108.25 272.61 1140.77 306.16 1174.34 339.75 1197.7 372.08 1202.46 402.59Q1202.46 402.59 1202.46 402.59" opacity="0.68"></path><path d="M1168.46 375.78C1156.94 403.95 1131.47 429.43 1099.81 452.31 1071.16 475.42 1049.6 496.45 1037.74 515.91 1037.38 536.6 1042.76 557.07 1049.11 578.25 1055.49 602.31 1054.99 628.51 1046.16 657.15 1031.04 688.65 1008.02 721.48 979.54 753.68 947.6 783.96 913.49 808.94 879.22 825.55 844.55 834.33 810.96 832.57 779.11 820.87 747.43 805.23 717.33 786.29 689.16 768.49 661 758.97 636.1 756.72 614.66 761.07 584.56 778.75 540.92 799.59 523.3 788.21 508.38 771.5 490.95 747.49 469.16 718.47 441.08 686.72 408.18 653.14 372.46 619.46 336.79 586.28 306.15 554.11 285.87 523.27 277.08 493.45 282.61 464.42 300.39 435.98 321.18 407.91 340.94 379.77 352.46 351.6 348.7 323.43 334.22 296.58 314.89 271.53 294.56 246.85 283.45 224.63 285.37 205.64 298.89 187.67 324.66 173.46 358.09 163.23 394.22 153.5 429.85 146.64 462.02 141.47 488.86 133.57 511.12 124.19 530.06 111.58 544.96 92.71 559.51 69.28 575.32 42.26 590.15 12.36 607.91 -15.9 629.05 -38.33 650.18 -53.55 674.85 -57.02 703.02 -47.49 731.19 -29.7 761.52 -5.05 793.5 21.45 825.49 44.02 858.96 61.81 892.95 73.68 925.95 77.72 957.79 78 986.29 77.05 1019.86 74.46 1042.65 95.55 1034.73 122.02 1030.63 144.25 1030.12 170.17 1037.24 198.29 1055.97 227.63 1083.11 257.85 1114.31 287.85 1144.51 318.1 1164.7 347.62 1168.46 375.78Q1168.46 375.78 1168.46 375.78" opacity="0.56"></path><path d="M1134.46 356.3C1124.43 382.12 1102.05 406.33 1073.27 428.99 1045.45 451.97 1021.97 474.01 1005.78 495.58 999.4 518.35 999.32 541.71 1002.37 566.18 1008.36 592.73 1011.11 620.94 1008.52 650.48 1002.17 681.08 988.96 711.36 969.99 739.34 947.44 764.24 921.16 783.3 892.99 794.37 863.52 798.82 833.79 794.53 804.92 782.35 775.86 767.67 748.12 750.57 722.3 734.49 696.48 725.38 673.81 722.14 654.17 724.44 634.35 733.33 617.11 743.58 601.83 752.34 585.26 760.08 569.02 761.8 551.78 756.66 530.96 746.61 507.1 729.73 479.6 707.49 448.36 681.96 414.99 653.35 382.12 623.32 352.18 592.6 329.11 561.87 316.56 531.9 313.82 502.26 322.62 473.47 340.47 445.74 359.28 418.21 376.43 391.41 386.46 365.59 383.6 339.77 371.67 316.15 354.98 294.99 329.4 264.94 334.72 220.07 369.58 205.1 400.58 195.34 434.23 186.89 467.42 178.58 498.24 166.98 525.98 153.25 550.61 136.41 571.73 114.66 591.18 89.79 610.14 63.13 627.51 35.44 646.12 10.5 666.73 -8.35 687.03 -20.61 710 -22.61 735.82 -13.5 761.64 2.56 789.09 24.89 817.48 49.54 845.57 71.69 873.92 90.68 901.3 105.15 963.63 116.6 995.47 130.29 989.83 147.97 990.61 163.29 996.27 182.45 1009.09 204.43 1031.08 227.6 1058.7 252.53 1087.78 278.25 1114.44 304.27 1131.6 330.48 1134.46 356.3Q1134.46 356.3 1134.46 356.3" opacity="0.67"></path><path d="M1100.48 349.94C1091.89 373.41 1072.56 396.46 1046.92 419.05 1020.74 441.92 996.56 464.84 977.33 488.04 965.75 512.1 959.96 537.08 958.23 563 961 590.01 963.39 617.87 963.27 645.83 962.04 673.43 955.92 699.42 944.95 722.06 931.36 741.19 913.62 754.54 892.94 760.74 870.79 761.7 847.06 755.65 822.85 743.52 798.28 730.02 773.95 714.78 750.48 700.38 727.01 691.76 705.51 687.75 685.81 688.23 665.75 694.55 646.78 702.53 628.25 710.09 608.26 717.99 587.35 721.8 564.75 720.52 539.55 715.85 511.97 705.35 482.44 689.8 451.79 671.12 421.57 648.76 394.37 624.08 371.65 598.03 356.39 571 350.76 543.94 352.8 516.66 363.61 489.84 380.74 464 397.32 438.19 411.89 413.35 420.48 389.88 418.36 366.41 408.77 345.41 394.76 326.96 370.76 300.59 362.55 259.82 385.59 243.88 409.37 232.39 437.8 221.05 468.2 208.97 498.81 193.76 528.44 176.43 556.16 156.65 581.77 133.49 605.56 108.63 628 83.53 648.99 58.76 669.82 37.42 691.1 22.05 711.98 12.5 734.08 11.76 757.55 20.38 781.02 34.78 804.75 54.77 828.14 77.33 851.13 98.52 872.99 117.94 892.69 134.18 932.6 154.98 949.09 170.72 949.46 182.81 955.75 193.06 967.01 206.74 984.12 223.35 1007.79 240.84 1034.63 260.61 1060.95 282.01 1084.02 303.68 1098.36 326.46 1100.48 349.94Q1100.48 349.94 1100.48 349.94" opacity="0.88"></path><path d="M1066.46 358.92C1059.13 380.04 1042.66 401.69 1020.29 423.7 996.43 445.87 972.82 468.71 952.06 492.12 936.73 515.97 925.98 540.61 919.2 565.72 917.21 591 916.55 616.25 915.53 640.56 914 673.96 893.6 718.78 874.02 725.12 858.88 723.47 841.34 716.4 822.16 704.78 802.65 692.64 782.11 679.25 760.99 666.5 739.86 658.44 719.16 653.87 698.83 652.82 678.17 656.74 657.27 662.35 635.81 668.21 613.29 675.29 589.47 679.84 564.25 680.87 537.85 679.99 510.36 674.52 482.79 664.75 456.11 652.5 431.73 636.57 411.73 617.91 396.51 597.73 388.31 575.86 388.16 553.2 393.43 529.99 405.01 506.64 420.73 483.77 434.95 460.81 447.13 438.55 454.46 417.43 453.1 396.3 445.73 377.31 434.45 360.44 413.05 335.92 395.53 294.57 407.7 275.74 423.44 261.84 444.64 247.44 469.3 232.01 495.9 214.09 523.45 194.51 550.64 173.39 577.32 150.36 602.87 126.87 627.07 104.3 650.44 82.96 672.92 65.33 694.7 53.26 716.18 46.15 737.5 46.44 758.62 54.5 779.75 67.25 799.68 84.92 818.04 105.22 836.1 124.98 852.04 144.08 865.29 161.21 890.94 190.41 907 213.73 915.18 223.54 926.64 230.99 942.3 241.14 962.07 253.9 985.94 267.09 1010.94 282.69 1034.01 300.35 1053.44 318.18 1065.09 337.78 1066.46 358.91Q1066.46 358.92 1066.46 358.92" opacity="0.37"></path><path d="M1032.45 380.22C1026.34 399 1012.62 418.77 993.59 439.27 972.55 459.83 950.54 481.19 929.68 503.06 912.17 524.97 897.78 547.27 886.59 569.45 879.54 591.17 874.5 612.14 870.36 631.47 859.31 671.4 821.76 680.28 800.36 665.86 785.18 655.2 768.1 643.64 749.32 632.5 730.54 625.06 710.96 620.16 690.73 617.89 670.31 619.68 648.94 622.99 626.68 626.86 604.02 632.42 580.36 636.57 556.14 638.51 532.02 639.71 508.15 637.62 485.69 632.17 456.61 619.96 425.91 579.36 428.43 553.53 435.52 535.26 446.85 516.22 460.64 496.99 472.43 477.62 482.34 458.35 488.45 439.57 487.67 420.79 482.26 403.39 473.58 387.36 455.5 363.61 433.35 319.61 436.94 297.64 445.26 281.71 458.78 265.05 476.27 247.51 496.31 228.34 518.6 208.17 541.88 187.41 565.81 165.92 589.66 144.93 612.79 125.61 635.76 107.97 657.87 93.98 678.86 84.94 699.73 79.96 719.68 81.06 738.45 88.5 757.23 99.64 773.96 115.01 788.5 132.91 802.92 150.87 814.98 168.97 824.54 186.09 837.5 207.01 854.04 236.31 860.94 246.8 872.43 255.07 912.41 276.36 942.1 291.3 964.72 301.97 986.99 314.77 1006.52 329.63 1022.45 344.54 1031.67 361.43 1032.45 380.21Q1032.45 380.22 1032.45 380.22" opacity="0.13"></path><path d="M998.45 407.49C983.71 440.36 949.38 477 909.54 514.71 876.24 551.55 850.9 587.14 832.66 616.37 822.94 639.67 811.65 651.21 794.65 647.84 778.16 638.36 753.46 619.81 720.6 598.49 687.74 588.35 649.83 585.12 609.36 586.61 569.42 595.1 529.42 598.52 496.08 593.47 471.25 585.32 461.73 567.08 470.94 541.56 486.7 514.15 507.71 482.6 522.45 449.73 516.59 416.87 500.64 385.82 484.9 356.28 471.31 324.85 474.23 291.8 492.85 256.89 520.57 218.87 557.16 180.59 595.6 148.02 635.35 122.44 673.22 112.35 706.08 122.49 738.95 143.81 763.69 175.68 780.88 209.25 799.39 236.71 814.08 260.02 829.43 279.78 853.88 293.62 885.81 309.32 923.5 329.42 963.32 348.67 992.59 374.63 998.45 407.49Q998.45 407.49 998.45 407.49" opacity="0.92"></path><path d="M964.46 432.51C952.94 460.67 925.24 490.91 890.83 520.66 858.32 549.24 829.35 574.92 805.55 593.9 788.45 608.37 772.37 613.2 754.29 607.02 737.74 597.83 715.79 582.3 687.62 564.5 659.46 554.98 627.74 549.74 595.48 547.91 550.81 553.35 503.48 541.11 514.9 516.98 528.66 497.59 544.94 473.02 556.46 444.85 552.7 416.69 541.62 387.59 529.44 358.17 515.76 327.67 512.45 295.34 520.74 262.41 535.23 228.89 558.93 197.11 587.05 171.97 617.06 153.15 647.72 146.98 675.89 156.5 704.05 174.29 727.06 201.25 745.86 231.08 766.56 257.9 786.81 282.95 809.24 305.4 837.86 323.34 871.05 341.61 905.37 361.85 938.2 380.91 960.7 404.33 964.46 432.5Q964.46 432.51 964.46 432.51" opacity="0.90"></path><path d="M930.46 447.68C921.82 471.15 900.57 494.54 872.7 515.98 844 536.43 815.47 553.15 789.69 563.82 767.82 571.72 747.53 572.33 727.63 565.29 709.2 557.31 688.5 544.9 665.03 530.5 641.56 521.88 617.53 515.45 595.29 511.07 556.22 505.86 575.95 459.34 590.46 426.38 588.4 402.91 581.62 377.16 573.52 350.35 562.29 323.22 556.87 294.76 559.06 266.92 564.23 239.89 577.13 215.65 595.42 197.79 615.17 184.96 637.84 181.88 661.31 190.5 684.78 204.89 706.83 226.82 727.76 252.01 750.15 276.25 773.88 300.54 799.47 323.4 828.04 343.5 858.36 363.4 886.79 383.63 912.11 402.87 928.4 424.2 930.46 447.67Q930.46 447.68 930.46 447.68" opacity="0.14"></path><path d="M896.46 448.41C890.35 467.19 875.08 484.21 854.21 498.43 831.46 512.08 806.98 521.99 783.26 527.04 760.97 530.84 739.72 529.52 719.8 523.16 700.72 516.95 681.66 507.64 662.88 496.49 616.51 478.99 592.32 458.45 603.58 444.14 610.69 433.47 618.35 418.69 624.46 399.91 623.68 381.13 620.42 360.13 616.25 338.26 608.88 316.51 604.49 294.26 604.56 273.38 608.35 245.41 642.19 217.47 668.83 224.49 687.61 235.64 707.66 252.56 728.43 272.53 749.86 292.66 772.98 313.9 796.9 334.71 821.44 354.26 845.74 373.66 866.88 392.56 884.81 410.87 895.68 429.63 896.46 448.41Q896.46 448.41 896.46 448.41" opacity="0.96"></path><path d="M862.46 434.5C850.94 462.66 818.79 480.82 782.23 485.54 745.8 489.03 710.3 480.3 682.14 462.5 646.21 447.38 642.28 410.69 658.46 373.49 654.7 345.32 650.41 312.39 652.41 284.53 652.59 260.61 666.95 248.98 695.12 258.5 723.28 276.3 759.92 307.87 796.66 341.29 831.57 373.49 858.7 406.33 862.46 434.5Q862.46 434.5 862.46 434.5" opacity="0.92"></path><path d="M828.46 410.12C810.19 447.68 751.79 453.45 714.24 428.49 676.68 418.03 674.19 392.62 692.46 355.06 684.11 317.51 690.89 282.03 728.45 292.49 766 317.45 820.11 372.57 828.46 410.12Q828.46 410.12 828.46 410.12" opacity="0.43"></path></g></svg>